<?xml version="1.0" encoding="utf-8" standalone="no"?>
<!DOCTYPE svg PUBLIC "-//W3C//DTD SVG 1.1//EN"
  "http://www.w3.org/Graphics/SVG/1.1/DTD/svg11.dtd">
<!-- Created with matplotlib (http://matplotlib.org/) -->
<svg height="1764pt" version="1.1" viewBox="0 0 1008 1764" width="1008pt" xmlns="http://www.w3.org/2000/svg" xmlns:xlink="http://www.w3.org/1999/xlink">
 <defs>
  <style type="text/css">
*{stroke-linecap:butt;stroke-linejoin:round;}
  </style>
 </defs>
 <g id="figure_1">
  <g id="patch_1">
   <path d="
M0 1764
L1008 1764
L1008 0
L0 0
z
" style="fill:#ffffff;"/>
  </g>
  <g id="axes_1">
   <g id="patch_2">
    <path d="
M126 1543.5
L907.2 1543.5
L907.2 176.4
L126 176.4
z
" style="fill:#ffffff;"/>
   </g>
   <g id="matplotlib.axis_1">
    <g id="xtick_1">
     <g id="line2d_1">
      <defs>
       <path d="
M0 0
L0 0" id="m219da94a98" style="stroke:#262626;"/>
      </defs>
      <g>
       <use style="fill:#262626;stroke:#262626;" x="126.0" xlink:href="#m219da94a98" y="1543.5"/>
      </g>
     </g>
     <g id="text_1">
      <!-- 0 -->
      <defs>
       <path d="
M31.7812 66.4062
Q24.1719 66.4062 20.3281 58.9062
Q16.5 51.4219 16.5 36.375
Q16.5 21.3906 20.3281 13.8906
Q24.1719 6.39062 31.7812 6.39062
Q39.4531 6.39062 43.2812 13.8906
Q47.125 21.3906 47.125 36.375
Q47.125 51.4219 43.2812 58.9062
Q39.4531 66.4062 31.7812 66.4062
M31.7812 74.2188
Q44.0469 74.2188 50.5156 64.5156
Q56.9844 54.8281 56.9844 36.375
Q56.9844 17.9688 50.5156 8.26562
Q44.0469 -1.42188 31.7812 -1.42188
Q19.5312 -1.42188 13.0625 8.26562
Q6.59375 17.9688 6.59375 36.375
Q6.59375 54.8281 13.0625 64.5156
Q19.5312 74.2188 31.7812 74.2188" id="BitstreamVeraSans-Roman-30"/>
      </defs>
      <g style="fill:#262626;" transform="translate(123.48046875 1558.0984375)scale(0.1 -0.1)">
       <use xlink:href="#BitstreamVeraSans-Roman-30"/>
      </g>
     </g>
    </g>
    <g id="xtick_2">
     <g id="line2d_2">
      <g>
       <use style="fill:#262626;stroke:#262626;" x="282.24" xlink:href="#m219da94a98" y="1543.5"/>
      </g>
     </g>
     <g id="text_2">
      <!-- 20 -->
      <defs>
       <path d="
M19.1875 8.29688
L53.6094 8.29688
L53.6094 0
L7.32812 0
L7.32812 8.29688
Q12.9375 14.1094 22.625 23.8906
Q32.3281 33.6875 34.8125 36.5312
Q39.5469 41.8438 41.4219 45.5312
Q43.3125 49.2188 43.3125 52.7812
Q43.3125 58.5938 39.2344 62.25
Q35.1562 65.9219 28.6094 65.9219
Q23.9688 65.9219 18.8125 64.3125
Q13.6719 62.7031 7.8125 59.4219
L7.8125 69.3906
Q13.7656 71.7812 18.9375 73
Q24.125 74.2188 28.4219 74.2188
Q39.75 74.2188 46.4844 68.5469
Q53.2188 62.8906 53.2188 53.4219
Q53.2188 48.9219 51.5312 44.8906
Q49.8594 40.875 45.4062 35.4062
Q44.1875 33.9844 37.6406 27.2188
Q31.1094 20.4531 19.1875 8.29688" id="BitstreamVeraSans-Roman-32"/>
      </defs>
      <g style="fill:#262626;" transform="translate(276.5759375 1558.0984375)scale(0.1 -0.1)">
       <use xlink:href="#BitstreamVeraSans-Roman-32"/>
       <use x="63.623046875" xlink:href="#BitstreamVeraSans-Roman-30"/>
      </g>
     </g>
    </g>
    <g id="xtick_3">
     <g id="line2d_3">
      <g>
       <use style="fill:#262626;stroke:#262626;" x="438.48" xlink:href="#m219da94a98" y="1543.5"/>
      </g>
     </g>
     <g id="text_3">
      <!-- 40 -->
      <defs>
       <path d="
M37.7969 64.3125
L12.8906 25.3906
L37.7969 25.3906
z

M35.2031 72.9062
L47.6094 72.9062
L47.6094 25.3906
L58.0156 25.3906
L58.0156 17.1875
L47.6094 17.1875
L47.6094 0
L37.7969 0
L37.7969 17.1875
L4.89062 17.1875
L4.89062 26.7031
z
" id="BitstreamVeraSans-Roman-34"/>
      </defs>
      <g style="fill:#262626;" transform="translate(432.6940625 1558.0984375)scale(0.1 -0.1)">
       <use xlink:href="#BitstreamVeraSans-Roman-34"/>
       <use x="63.623046875" xlink:href="#BitstreamVeraSans-Roman-30"/>
      </g>
     </g>
    </g>
    <g id="xtick_4">
     <g id="line2d_4">
      <g>
       <use style="fill:#262626;stroke:#262626;" x="594.72" xlink:href="#m219da94a98" y="1543.5"/>
      </g>
     </g>
     <g id="text_4">
      <!-- 60 -->
      <defs>
       <path d="
M33.0156 40.375
Q26.375 40.375 22.4844 35.8281
Q18.6094 31.2969 18.6094 23.3906
Q18.6094 15.5312 22.4844 10.9531
Q26.375 6.39062 33.0156 6.39062
Q39.6562 6.39062 43.5312 10.9531
Q47.4062 15.5312 47.4062 23.3906
Q47.4062 31.2969 43.5312 35.8281
Q39.6562 40.375 33.0156 40.375
M52.5938 71.2969
L52.5938 62.3125
Q48.875 64.0625 45.0938 64.9844
Q41.3125 65.9219 37.5938 65.9219
Q27.8281 65.9219 22.6719 59.3281
Q17.5312 52.7344 16.7969 39.4062
Q19.6719 43.6562 24.0156 45.9219
Q28.375 48.1875 33.5938 48.1875
Q44.5781 48.1875 50.9531 41.5156
Q57.3281 34.8594 57.3281 23.3906
Q57.3281 12.1562 50.6875 5.35938
Q44.0469 -1.42188 33.0156 -1.42188
Q20.3594 -1.42188 13.6719 8.26562
Q6.98438 17.9688 6.98438 36.375
Q6.98438 53.6562 15.1875 63.9375
Q23.3906 74.2188 37.2031 74.2188
Q40.9219 74.2188 44.7031 73.4844
Q48.4844 72.75 52.5938 71.2969" id="BitstreamVeraSans-Roman-36"/>
      </defs>
      <g style="fill:#262626;" transform="translate(589.03875 1558.0984375)scale(0.1 -0.1)">
       <use xlink:href="#BitstreamVeraSans-Roman-36"/>
       <use x="63.623046875" xlink:href="#BitstreamVeraSans-Roman-30"/>
      </g>
     </g>
    </g>
    <g id="xtick_5">
     <g id="line2d_5">
      <g>
       <use style="fill:#262626;stroke:#262626;" x="750.96" xlink:href="#m219da94a98" y="1543.5"/>
      </g>
     </g>
     <g id="text_5">
      <!-- 80 -->
      <defs>
       <path d="
M31.7812 34.625
Q24.75 34.625 20.7188 30.8594
Q16.7031 27.0938 16.7031 20.5156
Q16.7031 13.9219 20.7188 10.1562
Q24.75 6.39062 31.7812 6.39062
Q38.8125 6.39062 42.8594 10.1719
Q46.9219 13.9688 46.9219 20.5156
Q46.9219 27.0938 42.8906 30.8594
Q38.875 34.625 31.7812 34.625
M21.9219 38.8125
Q15.5781 40.375 12.0312 44.7188
Q8.5 49.0781 8.5 55.3281
Q8.5 64.0625 14.7188 69.1406
Q20.9531 74.2188 31.7812 74.2188
Q42.6719 74.2188 48.875 69.1406
Q55.0781 64.0625 55.0781 55.3281
Q55.0781 49.0781 51.5312 44.7188
Q48 40.375 41.7031 38.8125
Q48.8281 37.1562 52.7969 32.3125
Q56.7812 27.4844 56.7812 20.5156
Q56.7812 9.90625 50.3125 4.23438
Q43.8438 -1.42188 31.7812 -1.42188
Q19.7344 -1.42188 13.25 4.23438
Q6.78125 9.90625 6.78125 20.5156
Q6.78125 27.4844 10.7812 32.3125
Q14.7969 37.1562 21.9219 38.8125
M18.3125 54.3906
Q18.3125 48.7344 21.8438 45.5625
Q25.3906 42.3906 31.7812 42.3906
Q38.1406 42.3906 41.7188 45.5625
Q45.3125 48.7344 45.3125 54.3906
Q45.3125 60.0625 41.7188 63.2344
Q38.1406 66.4062 31.7812 66.4062
Q25.3906 66.4062 21.8438 63.2344
Q18.3125 60.0625 18.3125 54.3906" id="BitstreamVeraSans-Roman-38"/>
      </defs>
      <g style="fill:#262626;" transform="translate(745.26859375 1558.0984375)scale(0.1 -0.1)">
       <use xlink:href="#BitstreamVeraSans-Roman-38"/>
       <use x="63.623046875" xlink:href="#BitstreamVeraSans-Roman-30"/>
      </g>
     </g>
    </g>
    <g id="xtick_6">
     <g id="line2d_6">
      <g>
       <use style="fill:#262626;stroke:#262626;" x="907.2" xlink:href="#m219da94a98" y="1543.5"/>
      </g>
     </g>
     <g id="text_6">
      <!-- 100 -->
      <defs>
       <path d="
M12.4062 8.29688
L28.5156 8.29688
L28.5156 63.9219
L10.9844 60.4062
L10.9844 69.3906
L28.4219 72.9062
L38.2812 72.9062
L38.2812 8.29688
L54.3906 8.29688
L54.3906 0
L12.4062 0
z
" id="BitstreamVeraSans-Roman-31"/>
      </defs>
      <g style="fill:#262626;" transform="translate(898.5375 1558.0984375)scale(0.1 -0.1)">
       <use xlink:href="#BitstreamVeraSans-Roman-31"/>
       <use x="63.623046875" xlink:href="#BitstreamVeraSans-Roman-30"/>
       <use x="127.24609375" xlink:href="#BitstreamVeraSans-Roman-30"/>
      </g>
     </g>
    </g>
   </g>
   <g id="matplotlib.axis_2">
    <g id="ytick_1">
     <g id="line2d_7">
      <g>
       <use style="fill:#262626;stroke:#262626;" x="126.0" xlink:href="#m219da94a98" y="1445.85"/>
      </g>
     </g>
     <g id="text_7">
      <!-- Landing page views -->
      <defs>
       <path id="BitstreamVeraSans-Roman-20"/>
       <path d="
M9.8125 72.9062
L19.6719 72.9062
L19.6719 8.29688
L55.1719 8.29688
L55.1719 0
L9.8125 0
z
" id="BitstreamVeraSans-Roman-4c"/>
       <path d="
M54.8906 33.0156
L54.8906 0
L45.9062 0
L45.9062 32.7188
Q45.9062 40.4844 42.875 44.3281
Q39.8438 48.1875 33.7969 48.1875
Q26.5156 48.1875 22.3125 43.5469
Q18.1094 38.9219 18.1094 30.9062
L18.1094 0
L9.07812 0
L9.07812 54.6875
L18.1094 54.6875
L18.1094 46.1875
Q21.3438 51.125 25.7031 53.5625
Q30.0781 56 35.7969 56
Q45.2188 56 50.0469 50.1719
Q54.8906 44.3438 54.8906 33.0156" id="BitstreamVeraSans-Roman-6e"/>
       <path d="
M2.98438 54.6875
L12.5 54.6875
L29.5938 8.79688
L46.6875 54.6875
L56.2031 54.6875
L35.6875 0
L23.4844 0
z
" id="BitstreamVeraSans-Roman-76"/>
       <path d="
M9.42188 54.6875
L18.4062 54.6875
L18.4062 0
L9.42188 0
z

M9.42188 75.9844
L18.4062 75.9844
L18.4062 64.5938
L9.42188 64.5938
z
" id="BitstreamVeraSans-Roman-69"/>
       <path d="
M4.20312 54.6875
L13.1875 54.6875
L24.4219 12.0156
L35.5938 54.6875
L46.1875 54.6875
L57.4219 12.0156
L68.6094 54.6875
L77.5938 54.6875
L63.2812 0
L52.6875 0
L40.9219 44.8281
L29.1094 0
L18.5 0
z
" id="BitstreamVeraSans-Roman-77"/>
       <path d="
M56.2031 29.5938
L56.2031 25.2031
L14.8906 25.2031
Q15.4844 15.9219 20.4844 11.0625
Q25.4844 6.20312 34.4219 6.20312
Q39.5938 6.20312 44.4531 7.46875
Q49.3125 8.73438 54.1094 11.2812
L54.1094 2.78125
Q49.2656 0.734375 44.1875 -0.34375
Q39.1094 -1.42188 33.8906 -1.42188
Q20.7969 -1.42188 13.1562 6.1875
Q5.51562 13.8125 5.51562 26.8125
Q5.51562 40.2344 12.7656 48.1094
Q20.0156 56 32.3281 56
Q43.3594 56 49.7812 48.8906
Q56.2031 41.7969 56.2031 29.5938
M47.2188 32.2344
Q47.125 39.5938 43.0938 43.9844
Q39.0625 48.3906 32.4219 48.3906
Q24.9062 48.3906 20.3906 44.1406
Q15.875 39.8906 15.1875 32.1719
z
" id="BitstreamVeraSans-Roman-65"/>
       <path d="
M45.4062 46.3906
L45.4062 75.9844
L54.3906 75.9844
L54.3906 0
L45.4062 0
L45.4062 8.20312
Q42.5781 3.32812 38.25 0.953125
Q33.9375 -1.42188 27.875 -1.42188
Q17.9688 -1.42188 11.7344 6.48438
Q5.51562 14.4062 5.51562 27.2969
Q5.51562 40.1875 11.7344 48.0938
Q17.9688 56 27.875 56
Q33.9375 56 38.25 53.625
Q42.5781 51.2656 45.4062 46.3906
M14.7969 27.2969
Q14.7969 17.3906 18.875 11.75
Q22.9531 6.10938 30.0781 6.10938
Q37.2031 6.10938 41.2969 11.75
Q45.4062 17.3906 45.4062 27.2969
Q45.4062 37.2031 41.2969 42.8438
Q37.2031 48.4844 30.0781 48.4844
Q22.9531 48.4844 18.875 42.8438
Q14.7969 37.2031 14.7969 27.2969" id="BitstreamVeraSans-Roman-64"/>
       <path d="
M45.4062 27.9844
Q45.4062 37.75 41.375 43.1094
Q37.3594 48.4844 30.0781 48.4844
Q22.8594 48.4844 18.8281 43.1094
Q14.7969 37.75 14.7969 27.9844
Q14.7969 18.2656 18.8281 12.8906
Q22.8594 7.51562 30.0781 7.51562
Q37.3594 7.51562 41.375 12.8906
Q45.4062 18.2656 45.4062 27.9844
M54.3906 6.78125
Q54.3906 -7.17188 48.1875 -13.9844
Q42 -20.7969 29.2031 -20.7969
Q24.4688 -20.7969 20.2656 -20.0938
Q16.0625 -19.3906 12.1094 -17.9219
L12.1094 -9.1875
Q16.0625 -11.3281 19.9219 -12.3438
Q23.7812 -13.375 27.7812 -13.375
Q36.625 -13.375 41.0156 -8.76562
Q45.4062 -4.15625 45.4062 5.17188
L45.4062 9.625
Q42.625 4.78125 38.2812 2.39062
Q33.9375 0 27.875 0
Q17.8281 0 11.6719 7.65625
Q5.51562 15.3281 5.51562 27.9844
Q5.51562 40.6719 11.6719 48.3281
Q17.8281 56 27.875 56
Q33.9375 56 38.2812 53.6094
Q42.625 51.2188 45.4062 46.3906
L45.4062 54.6875
L54.3906 54.6875
z
" id="BitstreamVeraSans-Roman-67"/>
       <path d="
M34.2812 27.4844
Q23.3906 27.4844 19.1875 25
Q14.9844 22.5156 14.9844 16.5
Q14.9844 11.7188 18.1406 8.90625
Q21.2969 6.10938 26.7031 6.10938
Q34.1875 6.10938 38.7031 11.4062
Q43.2188 16.7031 43.2188 25.4844
L43.2188 27.4844
z

M52.2031 31.2031
L52.2031 0
L43.2188 0
L43.2188 8.29688
Q40.1406 3.32812 35.5469 0.953125
Q30.9531 -1.42188 24.3125 -1.42188
Q15.9219 -1.42188 10.9531 3.29688
Q6 8.01562 6 15.9219
Q6 25.1406 12.1719 29.8281
Q18.3594 34.5156 30.6094 34.5156
L43.2188 34.5156
L43.2188 35.4062
Q43.2188 41.6094 39.1406 45
Q35.0625 48.3906 27.6875 48.3906
Q23 48.3906 18.5469 47.2656
Q14.1094 46.1406 10.0156 43.8906
L10.0156 52.2031
Q14.9375 54.1094 19.5781 55.0469
Q24.2188 56 28.6094 56
Q40.4844 56 46.3438 49.8438
Q52.2031 43.7031 52.2031 31.2031" id="BitstreamVeraSans-Roman-61"/>
       <path d="
M44.2812 53.0781
L44.2812 44.5781
Q40.4844 46.5312 36.375 47.5
Q32.2812 48.4844 27.875 48.4844
Q21.1875 48.4844 17.8438 46.4375
Q14.5 44.3906 14.5 40.2812
Q14.5 37.1562 16.8906 35.375
Q19.2812 33.5938 26.5156 31.9844
L29.5938 31.2969
Q39.1562 29.25 43.1875 25.5156
Q47.2188 21.7812 47.2188 15.0938
Q47.2188 7.46875 41.1875 3.01562
Q35.1562 -1.42188 24.6094 -1.42188
Q20.2188 -1.42188 15.4531 -0.5625
Q10.6875 0.296875 5.42188 2
L5.42188 11.2812
Q10.4062 8.6875 15.2344 7.39062
Q20.0625 6.10938 24.8125 6.10938
Q31.1562 6.10938 34.5625 8.28125
Q37.9844 10.4531 37.9844 14.4062
Q37.9844 18.0625 35.5156 20.0156
Q33.0625 21.9688 24.7031 23.7812
L21.5781 24.5156
Q13.2344 26.2656 9.51562 29.9062
Q5.8125 33.5469 5.8125 39.8906
Q5.8125 47.6094 11.2812 51.7969
Q16.75 56 26.8125 56
Q31.7812 56 36.1719 55.2656
Q40.5781 54.5469 44.2812 53.0781" id="BitstreamVeraSans-Roman-73"/>
       <path d="
M18.1094 8.20312
L18.1094 -20.7969
L9.07812 -20.7969
L9.07812 54.6875
L18.1094 54.6875
L18.1094 46.3906
Q20.9531 51.2656 25.2656 53.625
Q29.5938 56 35.5938 56
Q45.5625 56 51.7812 48.0938
Q58.0156 40.1875 58.0156 27.2969
Q58.0156 14.4062 51.7812 6.48438
Q45.5625 -1.42188 35.5938 -1.42188
Q29.5938 -1.42188 25.2656 0.953125
Q20.9531 3.32812 18.1094 8.20312
M48.6875 27.2969
Q48.6875 37.2031 44.6094 42.8438
Q40.5312 48.4844 33.4062 48.4844
Q26.2656 48.4844 22.1875 42.8438
Q18.1094 37.2031 18.1094 27.2969
Q18.1094 17.3906 22.1875 11.75
Q26.2656 6.10938 33.4062 6.10938
Q40.5312 6.10938 44.6094 11.75
Q48.6875 17.3906 48.6875 27.2969" id="BitstreamVeraSans-Roman-70"/>
      </defs>
      <g style="fill:#262626;" transform="translate(-39.295 1450.265)scale(0.16 -0.16)">
       <use xlink:href="#BitstreamVeraSans-Roman-4c"/>
       <use x="55.712890625" xlink:href="#BitstreamVeraSans-Roman-61"/>
       <use x="116.9921875" xlink:href="#BitstreamVeraSans-Roman-6e"/>
       <use x="180.37109375" xlink:href="#BitstreamVeraSans-Roman-64"/>
       <use x="243.84765625" xlink:href="#BitstreamVeraSans-Roman-69"/>
       <use x="271.630859375" xlink:href="#BitstreamVeraSans-Roman-6e"/>
       <use x="335.009765625" xlink:href="#BitstreamVeraSans-Roman-67"/>
       <use x="398.486328125" xlink:href="#BitstreamVeraSans-Roman-20"/>
       <use x="430.2734375" xlink:href="#BitstreamVeraSans-Roman-70"/>
       <use x="493.75" xlink:href="#BitstreamVeraSans-Roman-61"/>
       <use x="555.029296875" xlink:href="#BitstreamVeraSans-Roman-67"/>
       <use x="618.505859375" xlink:href="#BitstreamVeraSans-Roman-65"/>
       <use x="680.029296875" xlink:href="#BitstreamVeraSans-Roman-20"/>
       <use x="711.81640625" xlink:href="#BitstreamVeraSans-Roman-76"/>
       <use x="770.99609375" xlink:href="#BitstreamVeraSans-Roman-69"/>
       <use x="798.779296875" xlink:href="#BitstreamVeraSans-Roman-65"/>
       <use x="860.302734375" xlink:href="#BitstreamVeraSans-Roman-77"/>
       <use x="942.08984375" xlink:href="#BitstreamVeraSans-Roman-73"/>
      </g>
     </g>
    </g>
    <g id="ytick_2">
     <g id="line2d_8">
      <g>
       <use style="fill:#262626;stroke:#262626;" x="126.0" xlink:href="#m219da94a98" y="1250.55"/>
      </g>
     </g>
     <g id="text_8">
      <!-- Links to the data from other -->
      <defs>
       <path d="
M52 44.1875
Q55.375 50.25 60.0625 53.125
Q64.75 56 71.0938 56
Q79.6406 56 84.2812 50.0156
Q88.9219 44.0469 88.9219 33.0156
L88.9219 0
L79.8906 0
L79.8906 32.7188
Q79.8906 40.5781 77.0938 44.375
Q74.3125 48.1875 68.6094 48.1875
Q61.625 48.1875 57.5625 43.5469
Q53.5156 38.9219 53.5156 30.9062
L53.5156 0
L44.4844 0
L44.4844 32.7188
Q44.4844 40.625 41.7031 44.4062
Q38.9219 48.1875 33.1094 48.1875
Q26.2188 48.1875 22.1562 43.5312
Q18.1094 38.875 18.1094 30.9062
L18.1094 0
L9.07812 0
L9.07812 54.6875
L18.1094 54.6875
L18.1094 46.1875
Q21.1875 51.2188 25.4844 53.6094
Q29.7812 56 35.6875 56
Q41.6562 56 45.8281 52.9688
Q50 49.9531 52 44.1875" id="BitstreamVeraSans-Roman-6d"/>
       <path d="
M30.6094 48.3906
Q23.3906 48.3906 19.1875 42.75
Q14.9844 37.1094 14.9844 27.2969
Q14.9844 17.4844 19.1562 11.8438
Q23.3438 6.20312 30.6094 6.20312
Q37.7969 6.20312 41.9844 11.8594
Q46.1875 17.5312 46.1875 27.2969
Q46.1875 37.0156 41.9844 42.7031
Q37.7969 48.3906 30.6094 48.3906
M30.6094 56
Q42.3281 56 49.0156 48.375
Q55.7188 40.7656 55.7188 27.2969
Q55.7188 13.875 49.0156 6.21875
Q42.3281 -1.42188 30.6094 -1.42188
Q18.8438 -1.42188 12.1719 6.21875
Q5.51562 13.875 5.51562 27.2969
Q5.51562 40.7656 12.1719 48.375
Q18.8438 56 30.6094 56" id="BitstreamVeraSans-Roman-6f"/>
       <path d="
M9.07812 75.9844
L18.1094 75.9844
L18.1094 31.1094
L44.9219 54.6875
L56.3906 54.6875
L27.3906 29.1094
L57.625 0
L45.9062 0
L18.1094 26.7031
L18.1094 0
L9.07812 0
z
" id="BitstreamVeraSans-Roman-6b"/>
       <path d="
M54.8906 33.0156
L54.8906 0
L45.9062 0
L45.9062 32.7188
Q45.9062 40.4844 42.875 44.3281
Q39.8438 48.1875 33.7969 48.1875
Q26.5156 48.1875 22.3125 43.5469
Q18.1094 38.9219 18.1094 30.9062
L18.1094 0
L9.07812 0
L9.07812 75.9844
L18.1094 75.9844
L18.1094 46.1875
Q21.3438 51.125 25.7031 53.5625
Q30.0781 56 35.7969 56
Q45.2188 56 50.0469 50.1719
Q54.8906 44.3438 54.8906 33.0156" id="BitstreamVeraSans-Roman-68"/>
       <path d="
M18.3125 70.2188
L18.3125 54.6875
L36.8125 54.6875
L36.8125 47.7031
L18.3125 47.7031
L18.3125 18.0156
Q18.3125 11.3281 20.1406 9.42188
Q21.9688 7.51562 27.5938 7.51562
L36.8125 7.51562
L36.8125 0
L27.5938 0
Q17.1875 0 13.2344 3.875
Q9.28125 7.76562 9.28125 18.0156
L9.28125 47.7031
L2.6875 47.7031
L2.6875 54.6875
L9.28125 54.6875
L9.28125 70.2188
z
" id="BitstreamVeraSans-Roman-74"/>
       <path d="
M37.1094 75.9844
L37.1094 68.5
L28.5156 68.5
Q23.6875 68.5 21.7969 66.5469
Q19.9219 64.5938 19.9219 59.5156
L19.9219 54.6875
L34.7188 54.6875
L34.7188 47.7031
L19.9219 47.7031
L19.9219 0
L10.8906 0
L10.8906 47.7031
L2.29688 47.7031
L2.29688 54.6875
L10.8906 54.6875
L10.8906 58.5
Q10.8906 67.625 15.1406 71.7969
Q19.3906 75.9844 28.6094 75.9844
z
" id="BitstreamVeraSans-Roman-66"/>
       <path d="
M41.1094 46.2969
Q39.5938 47.1719 37.8125 47.5781
Q36.0312 48 33.8906 48
Q26.2656 48 22.1875 43.0469
Q18.1094 38.0938 18.1094 28.8125
L18.1094 0
L9.07812 0
L9.07812 54.6875
L18.1094 54.6875
L18.1094 46.1875
Q20.9531 51.1719 25.4844 53.5781
Q30.0312 56 36.5312 56
Q37.4531 56 38.5781 55.875
Q39.7031 55.7656 41.0625 55.5156
z
" id="BitstreamVeraSans-Roman-72"/>
      </defs>
      <g style="fill:#262626;" transform="translate(-105.735 1246.00675)scale(0.16 -0.16)">
       <use xlink:href="#BitstreamVeraSans-Roman-4c"/>
       <use x="55.712890625" xlink:href="#BitstreamVeraSans-Roman-69"/>
       <use x="83.49609375" xlink:href="#BitstreamVeraSans-Roman-6e"/>
       <use x="146.875" xlink:href="#BitstreamVeraSans-Roman-6b"/>
       <use x="204.78515625" xlink:href="#BitstreamVeraSans-Roman-73"/>
       <use x="256.884765625" xlink:href="#BitstreamVeraSans-Roman-20"/>
       <use x="288.671875" xlink:href="#BitstreamVeraSans-Roman-74"/>
       <use x="327.880859375" xlink:href="#BitstreamVeraSans-Roman-6f"/>
       <use x="389.0625" xlink:href="#BitstreamVeraSans-Roman-20"/>
       <use x="420.849609375" xlink:href="#BitstreamVeraSans-Roman-74"/>
       <use x="460.05859375" xlink:href="#BitstreamVeraSans-Roman-68"/>
       <use x="523.4375" xlink:href="#BitstreamVeraSans-Roman-65"/>
       <use x="584.9609375" xlink:href="#BitstreamVeraSans-Roman-20"/>
       <use x="616.748046875" xlink:href="#BitstreamVeraSans-Roman-64"/>
       <use x="680.224609375" xlink:href="#BitstreamVeraSans-Roman-61"/>
       <use x="741.50390625" xlink:href="#BitstreamVeraSans-Roman-74"/>
       <use x="780.712890625" xlink:href="#BitstreamVeraSans-Roman-61"/>
       <use x="841.9921875" xlink:href="#BitstreamVeraSans-Roman-20"/>
       <use x="873.779296875" xlink:href="#BitstreamVeraSans-Roman-66"/>
       <use x="908.984375" xlink:href="#BitstreamVeraSans-Roman-72"/>
       <use x="947.84765625" xlink:href="#BitstreamVeraSans-Roman-6f"/>
       <use x="1009.02929688" xlink:href="#BitstreamVeraSans-Roman-6d"/>
       <use x="1106.44140625" xlink:href="#BitstreamVeraSans-Roman-20"/>
       <use x="1138.22851562" xlink:href="#BitstreamVeraSans-Roman-6f"/>
       <use x="1199.41015625" xlink:href="#BitstreamVeraSans-Roman-74"/>
       <use x="1238.61914062" xlink:href="#BitstreamVeraSans-Roman-68"/>
       <use x="1301.99804688" xlink:href="#BitstreamVeraSans-Roman-65"/>
       <use x="1363.52148438" xlink:href="#BitstreamVeraSans-Roman-72"/>
      </g>
      <!-- websites -->
      <defs>
       <path d="
M48.6875 27.2969
Q48.6875 37.2031 44.6094 42.8438
Q40.5312 48.4844 33.4062 48.4844
Q26.2656 48.4844 22.1875 42.8438
Q18.1094 37.2031 18.1094 27.2969
Q18.1094 17.3906 22.1875 11.75
Q26.2656 6.10938 33.4062 6.10938
Q40.5312 6.10938 44.6094 11.75
Q48.6875 17.3906 48.6875 27.2969
M18.1094 46.3906
Q20.9531 51.2656 25.2656 53.625
Q29.5938 56 35.5938 56
Q45.5625 56 51.7812 48.0938
Q58.0156 40.1875 58.0156 27.2969
Q58.0156 14.4062 51.7812 6.48438
Q45.5625 -1.42188 35.5938 -1.42188
Q29.5938 -1.42188 25.2656 0.953125
Q20.9531 3.32812 18.1094 8.20312
L18.1094 0
L9.07812 0
L9.07812 75.9844
L18.1094 75.9844
z
" id="BitstreamVeraSans-Roman-62"/>
      </defs>
      <g style="fill:#262626;" transform="translate(50.1325 1263.92325)scale(0.16 -0.16)">
       <use xlink:href="#BitstreamVeraSans-Roman-77"/>
       <use x="81.787109375" xlink:href="#BitstreamVeraSans-Roman-65"/>
       <use x="143.310546875" xlink:href="#BitstreamVeraSans-Roman-62"/>
       <use x="206.787109375" xlink:href="#BitstreamVeraSans-Roman-73"/>
       <use x="258.88671875" xlink:href="#BitstreamVeraSans-Roman-69"/>
       <use x="286.669921875" xlink:href="#BitstreamVeraSans-Roman-74"/>
       <use x="325.87890625" xlink:href="#BitstreamVeraSans-Roman-65"/>
       <use x="387.40234375" xlink:href="#BitstreamVeraSans-Roman-73"/>
      </g>
     </g>
    </g>
    <g id="ytick_3">
     <g id="line2d_9">
      <g>
       <use style="fill:#262626;stroke:#262626;" x="126.0" xlink:href="#m219da94a98" y="1055.25"/>
      </g>
     </g>
     <g id="text_9">
      <!-- Usage for education -->
      <defs>
       <path d="
M8.5 21.5781
L8.5 54.6875
L17.4844 54.6875
L17.4844 21.9219
Q17.4844 14.1562 20.5 10.2656
Q23.5312 6.39062 29.5938 6.39062
Q36.8594 6.39062 41.0781 11.0312
Q45.3125 15.6719 45.3125 23.6875
L45.3125 54.6875
L54.2969 54.6875
L54.2969 0
L45.3125 0
L45.3125 8.40625
Q42.0469 3.42188 37.7188 1
Q33.4062 -1.42188 27.6875 -1.42188
Q18.2656 -1.42188 13.375 4.4375
Q8.5 10.2969 8.5 21.5781" id="BitstreamVeraSans-Roman-75"/>
       <path d="
M8.6875 72.9062
L18.6094 72.9062
L18.6094 28.6094
Q18.6094 16.8906 22.8438 11.7344
Q27.0938 6.59375 36.625 6.59375
Q46.0938 6.59375 50.3438 11.7344
Q54.5938 16.8906 54.5938 28.6094
L54.5938 72.9062
L64.5 72.9062
L64.5 27.3906
Q64.5 13.1406 57.4375 5.85938
Q50.3906 -1.42188 36.625 -1.42188
Q22.7969 -1.42188 15.7344 5.85938
Q8.6875 13.1406 8.6875 27.3906
z
" id="BitstreamVeraSans-Roman-55"/>
       <path d="
M48.7812 52.5938
L48.7812 44.1875
Q44.9688 46.2969 41.1406 47.3438
Q37.3125 48.3906 33.4062 48.3906
Q24.6562 48.3906 19.8125 42.8438
Q14.9844 37.3125 14.9844 27.2969
Q14.9844 17.2812 19.8125 11.7344
Q24.6562 6.20312 33.4062 6.20312
Q37.3125 6.20312 41.1406 7.25
Q44.9688 8.29688 48.7812 10.4062
L48.7812 2.09375
Q45.0156 0.34375 40.9844 -0.53125
Q36.9688 -1.42188 32.4219 -1.42188
Q20.0625 -1.42188 12.7812 6.34375
Q5.51562 14.1094 5.51562 27.2969
Q5.51562 40.6719 12.8594 48.3281
Q20.2188 56 33.0156 56
Q37.1562 56 41.1094 55.1406
Q45.0625 54.2969 48.7812 52.5938" id="BitstreamVeraSans-Roman-63"/>
      </defs>
      <g style="fill:#262626;" transform="translate(-41.0575 1059.665)scale(0.16 -0.16)">
       <use xlink:href="#BitstreamVeraSans-Roman-55"/>
       <use x="73.193359375" xlink:href="#BitstreamVeraSans-Roman-73"/>
       <use x="125.29296875" xlink:href="#BitstreamVeraSans-Roman-61"/>
       <use x="186.572265625" xlink:href="#BitstreamVeraSans-Roman-67"/>
       <use x="250.048828125" xlink:href="#BitstreamVeraSans-Roman-65"/>
       <use x="311.572265625" xlink:href="#BitstreamVeraSans-Roman-20"/>
       <use x="343.359375" xlink:href="#BitstreamVeraSans-Roman-66"/>
       <use x="378.564453125" xlink:href="#BitstreamVeraSans-Roman-6f"/>
       <use x="439.74609375" xlink:href="#BitstreamVeraSans-Roman-72"/>
       <use x="480.859375" xlink:href="#BitstreamVeraSans-Roman-20"/>
       <use x="512.646484375" xlink:href="#BitstreamVeraSans-Roman-65"/>
       <use x="574.169921875" xlink:href="#BitstreamVeraSans-Roman-64"/>
       <use x="637.646484375" xlink:href="#BitstreamVeraSans-Roman-75"/>
       <use x="701.025390625" xlink:href="#BitstreamVeraSans-Roman-63"/>
       <use x="756.005859375" xlink:href="#BitstreamVeraSans-Roman-61"/>
       <use x="817.28515625" xlink:href="#BitstreamVeraSans-Roman-74"/>
       <use x="856.494140625" xlink:href="#BitstreamVeraSans-Roman-69"/>
       <use x="884.27734375" xlink:href="#BitstreamVeraSans-Roman-6f"/>
       <use x="945.458984375" xlink:href="#BitstreamVeraSans-Roman-6e"/>
      </g>
     </g>
    </g>
    <g id="ytick_4">
     <g id="line2d_10">
      <g>
       <use style="fill:#262626;stroke:#262626;" x="126.0" xlink:href="#m219da94a98" y="859.95"/>
      </g>
     </g>
     <g id="text_10">
      <!-- Downloads -->
      <defs>
       <path d="
M19.6719 64.7969
L19.6719 8.10938
L31.5938 8.10938
Q46.6875 8.10938 53.6875 14.9375
Q60.6875 21.7812 60.6875 36.5312
Q60.6875 51.1719 53.6875 57.9844
Q46.6875 64.7969 31.5938 64.7969
z

M9.8125 72.9062
L30.0781 72.9062
Q51.2656 72.9062 61.1719 64.0938
Q71.0938 55.2812 71.0938 36.5312
Q71.0938 17.6719 61.125 8.82812
Q51.1719 0 30.0781 0
L9.8125 0
z
" id="BitstreamVeraSans-Roman-44"/>
       <path d="
M9.42188 75.9844
L18.4062 75.9844
L18.4062 0
L9.42188 0
z
" id="BitstreamVeraSans-Roman-6c"/>
      </defs>
      <g style="fill:#262626;" transform="translate(33.4825 864.365)scale(0.16 -0.16)">
       <use xlink:href="#BitstreamVeraSans-Roman-44"/>
       <use x="77.001953125" xlink:href="#BitstreamVeraSans-Roman-6f"/>
       <use x="138.18359375" xlink:href="#BitstreamVeraSans-Roman-77"/>
       <use x="219.970703125" xlink:href="#BitstreamVeraSans-Roman-6e"/>
       <use x="283.349609375" xlink:href="#BitstreamVeraSans-Roman-6c"/>
       <use x="311.1328125" xlink:href="#BitstreamVeraSans-Roman-6f"/>
       <use x="372.314453125" xlink:href="#BitstreamVeraSans-Roman-61"/>
       <use x="433.59375" xlink:href="#BitstreamVeraSans-Roman-64"/>
       <use x="497.0703125" xlink:href="#BitstreamVeraSans-Roman-73"/>
      </g>
     </g>
    </g>
    <g id="ytick_5">
     <g id="line2d_11">
      <g>
       <use style="fill:#262626;stroke:#262626;" x="126.0" xlink:href="#m219da94a98" y="664.65"/>
      </g>
     </g>
     <g id="text_11">
      <!-- Scientific usage outside of -->
      <defs>
       <path d="
M53.5156 70.5156
L53.5156 60.8906
Q47.9062 63.5781 42.9219 64.8906
Q37.9375 66.2188 33.2969 66.2188
Q25.25 66.2188 20.875 63.0938
Q16.5 59.9688 16.5 54.2031
Q16.5 49.3594 19.4062 46.8906
Q22.3125 44.4375 30.4219 42.9219
L36.375 41.7031
Q47.4062 39.5938 52.6562 34.2969
Q57.9062 29 57.9062 20.125
Q57.9062 9.51562 50.7969 4.04688
Q43.7031 -1.42188 29.9844 -1.42188
Q24.8125 -1.42188 18.9688 -0.25
Q13.1406 0.921875 6.89062 3.21875
L6.89062 13.375
Q12.8906 10.0156 18.6562 8.29688
Q24.4219 6.59375 29.9844 6.59375
Q38.4219 6.59375 43.0156 9.90625
Q47.6094 13.2344 47.6094 19.3906
Q47.6094 24.75 44.3125 27.7812
Q41.0156 30.8125 33.5 32.3281
L27.4844 33.5
Q16.4531 35.6875 11.5156 40.375
Q6.59375 45.0625 6.59375 53.4219
Q6.59375 63.0938 13.4062 68.6562
Q20.2188 74.2188 32.1719 74.2188
Q37.3125 74.2188 42.625 73.2812
Q47.9531 72.3594 53.5156 70.5156" id="BitstreamVeraSans-Roman-53"/>
      </defs>
      <g style="fill:#262626;" transform="translate(-92.2275 660.10675)scale(0.16 -0.16)">
       <use xlink:href="#BitstreamVeraSans-Roman-53"/>
       <use x="63.4765625" xlink:href="#BitstreamVeraSans-Roman-63"/>
       <use x="118.45703125" xlink:href="#BitstreamVeraSans-Roman-69"/>
       <use x="146.240234375" xlink:href="#BitstreamVeraSans-Roman-65"/>
       <use x="207.763671875" xlink:href="#BitstreamVeraSans-Roman-6e"/>
       <use x="271.142578125" xlink:href="#BitstreamVeraSans-Roman-74"/>
       <use x="310.3515625" xlink:href="#BitstreamVeraSans-Roman-69"/>
       <use x="338.134765625" xlink:href="#BitstreamVeraSans-Roman-66"/>
       <use x="373.33984375" xlink:href="#BitstreamVeraSans-Roman-69"/>
       <use x="401.123046875" xlink:href="#BitstreamVeraSans-Roman-63"/>
       <use x="456.103515625" xlink:href="#BitstreamVeraSans-Roman-20"/>
       <use x="487.890625" xlink:href="#BitstreamVeraSans-Roman-75"/>
       <use x="551.26953125" xlink:href="#BitstreamVeraSans-Roman-73"/>
       <use x="603.369140625" xlink:href="#BitstreamVeraSans-Roman-61"/>
       <use x="664.6484375" xlink:href="#BitstreamVeraSans-Roman-67"/>
       <use x="728.125" xlink:href="#BitstreamVeraSans-Roman-65"/>
       <use x="789.6484375" xlink:href="#BitstreamVeraSans-Roman-20"/>
       <use x="821.435546875" xlink:href="#BitstreamVeraSans-Roman-6f"/>
       <use x="882.6171875" xlink:href="#BitstreamVeraSans-Roman-75"/>
       <use x="945.99609375" xlink:href="#BitstreamVeraSans-Roman-74"/>
       <use x="985.205078125" xlink:href="#BitstreamVeraSans-Roman-73"/>
       <use x="1037.3046875" xlink:href="#BitstreamVeraSans-Roman-69"/>
       <use x="1065.08789062" xlink:href="#BitstreamVeraSans-Roman-64"/>
       <use x="1128.56445312" xlink:href="#BitstreamVeraSans-Roman-65"/>
       <use x="1190.08789062" xlink:href="#BitstreamVeraSans-Roman-20"/>
       <use x="1221.875" xlink:href="#BitstreamVeraSans-Roman-6f"/>
       <use x="1283.05664062" xlink:href="#BitstreamVeraSans-Roman-66"/>
      </g>
      <!-- literature -->
      <g style="fill:#262626;" transform="translate(47.495 678.02325)scale(0.16 -0.16)">
       <use xlink:href="#BitstreamVeraSans-Roman-6c"/>
       <use x="27.783203125" xlink:href="#BitstreamVeraSans-Roman-69"/>
       <use x="55.56640625" xlink:href="#BitstreamVeraSans-Roman-74"/>
       <use x="94.775390625" xlink:href="#BitstreamVeraSans-Roman-65"/>
       <use x="156.298828125" xlink:href="#BitstreamVeraSans-Roman-72"/>
       <use x="197.412109375" xlink:href="#BitstreamVeraSans-Roman-61"/>
       <use x="258.69140625" xlink:href="#BitstreamVeraSans-Roman-74"/>
       <use x="297.900390625" xlink:href="#BitstreamVeraSans-Roman-75"/>
       <use x="361.279296875" xlink:href="#BitstreamVeraSans-Roman-72"/>
       <use x="400.142578125" xlink:href="#BitstreamVeraSans-Roman-65"/>
      </g>
     </g>
    </g>
    <g id="ytick_6">
     <g id="line2d_12">
      <g>
       <use style="fill:#262626;stroke:#262626;" x="126.0" xlink:href="#m219da94a98" y="469.35"/>
      </g>
     </g>
     <g id="text_12">
      <!-- “Real-world” impact (e.g., -->
      <defs>
       <path d="
M31 75.875
Q24.4688 64.6562 21.2812 53.6562
Q18.1094 42.6719 18.1094 31.3906
Q18.1094 20.125 21.3125 9.0625
Q24.5156 -2 31 -13.1875
L23.1875 -13.1875
Q15.875 -1.70312 12.2344 9.375
Q8.59375 20.4531 8.59375 31.3906
Q8.59375 42.2812 12.2031 53.3125
Q15.8281 64.3594 23.1875 75.875
z
" id="BitstreamVeraSans-Roman-28"/>
       <path d="
M11.7188 12.4062
L22.0156 12.4062
L22.0156 4
L14.0156 -11.625
L7.71875 -11.625
L11.7188 4
z
" id="BitstreamVeraSans-Roman-2c"/>
       <path d="
M44.3906 34.1875
Q47.5625 33.1094 50.5625 29.5938
Q53.5625 26.0781 56.5938 19.9219
L66.6094 0
L56 0
L46.6875 18.7031
Q43.0625 26.0312 39.6719 28.4219
Q36.2812 30.8125 30.4219 30.8125
L19.6719 30.8125
L19.6719 0
L9.8125 0
L9.8125 72.9062
L32.0781 72.9062
Q44.5781 72.9062 50.7344 67.6719
Q56.8906 62.4531 56.8906 51.9062
Q56.8906 45.0156 53.6875 40.4688
Q50.4844 35.9375 44.3906 34.1875
M19.6719 64.7969
L19.6719 38.9219
L32.0781 38.9219
Q39.2031 38.9219 42.8438 42.2188
Q46.4844 45.5156 46.4844 51.9062
Q46.4844 58.2969 42.8438 61.5469
Q39.2031 64.7969 32.0781 64.7969
z
" id="BitstreamVeraSans-Roman-52"/>
       <path d="
M10.6875 12.4062
L21 12.4062
L21 0
L10.6875 0
z
" id="BitstreamVeraSans-Roman-2e"/>
       <path d="
M4.89062 31.3906
L31.2031 31.3906
L31.2031 23.3906
L4.89062 23.3906
z
" id="BitstreamVeraSans-Roman-2d"/>
       <path d="
M12.5 72.9062
L22.7969 72.9062
L22.7969 64.5
L14.7969 48.875
L8.5 48.875
L12.5 64.5
z

M32.5156 72.9062
L42.8281 72.9062
L42.8281 64.5
L34.8125 48.875
L28.5156 48.875
L32.5156 64.5
z
" id="BitstreamVeraSans-Roman-201d"/>
       <path d="
M18.7969 48.875
L8.5 48.875
L8.5 57.3281
L16.5 72.9062
L22.7969 72.9062
L18.7969 57.3281
z

M38.8125 48.875
L28.5156 48.875
L28.5156 57.3281
L36.5312 72.9062
L42.8281 72.9062
L38.8125 57.3281
z
" id="BitstreamVeraSans-Roman-201c"/>
      </defs>
      <g style="fill:#262626;" transform="translate(-86.57 464.80675)scale(0.16 -0.16)">
       <use xlink:href="#BitstreamVeraSans-Roman-201c"/>
       <use x="48.681640625" xlink:href="#BitstreamVeraSans-Roman-52"/>
       <use x="113.6640625" xlink:href="#BitstreamVeraSans-Roman-65"/>
       <use x="175.1875" xlink:href="#BitstreamVeraSans-Roman-61"/>
       <use x="236.466796875" xlink:href="#BitstreamVeraSans-Roman-6c"/>
       <use x="264.25" xlink:href="#BitstreamVeraSans-Roman-2d"/>
       <use x="300.333984375" xlink:href="#BitstreamVeraSans-Roman-77"/>
       <use x="382.12109375" xlink:href="#BitstreamVeraSans-Roman-6f"/>
       <use x="443.302734375" xlink:href="#BitstreamVeraSans-Roman-72"/>
       <use x="484.416015625" xlink:href="#BitstreamVeraSans-Roman-6c"/>
       <use x="512.19921875" xlink:href="#BitstreamVeraSans-Roman-64"/>
       <use x="575.67578125" xlink:href="#BitstreamVeraSans-Roman-201d"/>
       <use x="627.482421875" xlink:href="#BitstreamVeraSans-Roman-20"/>
       <use x="659.26953125" xlink:href="#BitstreamVeraSans-Roman-69"/>
       <use x="687.052734375" xlink:href="#BitstreamVeraSans-Roman-6d"/>
       <use x="784.46484375" xlink:href="#BitstreamVeraSans-Roman-70"/>
       <use x="847.94140625" xlink:href="#BitstreamVeraSans-Roman-61"/>
       <use x="909.220703125" xlink:href="#BitstreamVeraSans-Roman-63"/>
       <use x="964.201171875" xlink:href="#BitstreamVeraSans-Roman-74"/>
       <use x="1003.41015625" xlink:href="#BitstreamVeraSans-Roman-20"/>
       <use x="1035.19726562" xlink:href="#BitstreamVeraSans-Roman-28"/>
       <use x="1074.2109375" xlink:href="#BitstreamVeraSans-Roman-65"/>
       <use x="1135.734375" xlink:href="#BitstreamVeraSans-Roman-2e"/>
       <use x="1167.52148438" xlink:href="#BitstreamVeraSans-Roman-67"/>
       <use x="1230.99804688" xlink:href="#BitstreamVeraSans-Roman-2e"/>
       <use x="1262.78515625" xlink:href="#BitstreamVeraSans-Roman-2c"/>
      </g>
      <!-- on medicine or policy) -->
      <defs>
       <path d="
M8.01562 75.875
L15.8281 75.875
Q23.1406 64.3594 26.7812 53.3125
Q30.4219 42.2812 30.4219 31.3906
Q30.4219 20.4531 26.7812 9.375
Q23.1406 -1.70312 15.8281 -13.1875
L8.01562 -13.1875
Q14.5 -2 17.7031 9.0625
Q20.9062 20.125 20.9062 31.3906
Q20.9062 42.6719 17.7031 53.6562
Q14.5 64.6562 8.01562 75.875" id="BitstreamVeraSans-Roman-29"/>
       <path d="
M32.1719 -5.07812
Q28.375 -14.8438 24.75 -17.8125
Q21.1406 -20.7969 15.0938 -20.7969
L7.90625 -20.7969
L7.90625 -13.2812
L13.1875 -13.2812
Q16.8906 -13.2812 18.9375 -11.5156
Q21 -9.76562 23.4844 -3.21875
L25.0938 0.875
L2.98438 54.6875
L12.5 54.6875
L29.5938 11.9219
L46.6875 54.6875
L56.2031 54.6875
z
" id="BitstreamVeraSans-Roman-79"/>
      </defs>
      <g style="fill:#262626;" transform="translate(-57.785 482.72325)scale(0.16 -0.16)">
       <use xlink:href="#BitstreamVeraSans-Roman-6f"/>
       <use x="61.181640625" xlink:href="#BitstreamVeraSans-Roman-6e"/>
       <use x="124.560546875" xlink:href="#BitstreamVeraSans-Roman-20"/>
       <use x="156.34765625" xlink:href="#BitstreamVeraSans-Roman-6d"/>
       <use x="253.759765625" xlink:href="#BitstreamVeraSans-Roman-65"/>
       <use x="315.283203125" xlink:href="#BitstreamVeraSans-Roman-64"/>
       <use x="378.759765625" xlink:href="#BitstreamVeraSans-Roman-69"/>
       <use x="406.54296875" xlink:href="#BitstreamVeraSans-Roman-63"/>
       <use x="461.5234375" xlink:href="#BitstreamVeraSans-Roman-69"/>
       <use x="489.306640625" xlink:href="#BitstreamVeraSans-Roman-6e"/>
       <use x="552.685546875" xlink:href="#BitstreamVeraSans-Roman-65"/>
       <use x="614.208984375" xlink:href="#BitstreamVeraSans-Roman-20"/>
       <use x="645.99609375" xlink:href="#BitstreamVeraSans-Roman-6f"/>
       <use x="707.177734375" xlink:href="#BitstreamVeraSans-Roman-72"/>
       <use x="748.291015625" xlink:href="#BitstreamVeraSans-Roman-20"/>
       <use x="780.078125" xlink:href="#BitstreamVeraSans-Roman-70"/>
       <use x="843.5546875" xlink:href="#BitstreamVeraSans-Roman-6f"/>
       <use x="904.736328125" xlink:href="#BitstreamVeraSans-Roman-6c"/>
       <use x="932.51953125" xlink:href="#BitstreamVeraSans-Roman-69"/>
       <use x="960.302734375" xlink:href="#BitstreamVeraSans-Roman-63"/>
       <use x="1015.28320312" xlink:href="#BitstreamVeraSans-Roman-79"/>
       <use x="1074.46289062" xlink:href="#BitstreamVeraSans-Roman-29"/>
      </g>
     </g>
    </g>
    <g id="ytick_7">
     <g id="line2d_13">
      <g>
       <use style="fill:#262626;stroke:#262626;" x="126.0" xlink:href="#m219da94a98" y="274.05"/>
      </g>
     </g>
     <g id="text_13">
      <!-- Citations / papers published -->
      <defs>
       <path d="
M64.4062 67.2812
L64.4062 56.8906
Q59.4219 61.5312 53.7812 63.8125
Q48.1406 66.1094 41.7969 66.1094
Q29.2969 66.1094 22.6562 58.4688
Q16.0156 50.8281 16.0156 36.375
Q16.0156 21.9688 22.6562 14.3281
Q29.2969 6.6875 41.7969 6.6875
Q48.1406 6.6875 53.7812 8.98438
Q59.4219 11.2812 64.4062 15.9219
L64.4062 5.60938
Q59.2344 2.09375 53.4375 0.328125
Q47.6562 -1.42188 41.2188 -1.42188
Q24.6562 -1.42188 15.125 8.70312
Q5.60938 18.8438 5.60938 36.375
Q5.60938 53.9531 15.125 64.0781
Q24.6562 74.2188 41.2188 74.2188
Q47.75 74.2188 53.5312 72.4844
Q59.3281 70.75 64.4062 67.2812" id="BitstreamVeraSans-Roman-43"/>
       <path d="
M25.3906 72.9062
L33.6875 72.9062
L8.29688 -9.28125
L0 -9.28125
z
" id="BitstreamVeraSans-Roman-2f"/>
      </defs>
      <g style="fill:#262626;" transform="translate(-103.5675 269.50675)scale(0.16 -0.16)">
       <use xlink:href="#BitstreamVeraSans-Roman-43"/>
       <use x="69.82421875" xlink:href="#BitstreamVeraSans-Roman-69"/>
       <use x="97.607421875" xlink:href="#BitstreamVeraSans-Roman-74"/>
       <use x="136.81640625" xlink:href="#BitstreamVeraSans-Roman-61"/>
       <use x="198.095703125" xlink:href="#BitstreamVeraSans-Roman-74"/>
       <use x="237.3046875" xlink:href="#BitstreamVeraSans-Roman-69"/>
       <use x="265.087890625" xlink:href="#BitstreamVeraSans-Roman-6f"/>
       <use x="326.26953125" xlink:href="#BitstreamVeraSans-Roman-6e"/>
       <use x="389.6484375" xlink:href="#BitstreamVeraSans-Roman-73"/>
       <use x="441.748046875" xlink:href="#BitstreamVeraSans-Roman-20"/>
       <use x="473.53515625" xlink:href="#BitstreamVeraSans-Roman-2f"/>
       <use x="507.2265625" xlink:href="#BitstreamVeraSans-Roman-20"/>
       <use x="539.013671875" xlink:href="#BitstreamVeraSans-Roman-70"/>
       <use x="602.490234375" xlink:href="#BitstreamVeraSans-Roman-61"/>
       <use x="663.76953125" xlink:href="#BitstreamVeraSans-Roman-70"/>
       <use x="727.24609375" xlink:href="#BitstreamVeraSans-Roman-65"/>
       <use x="788.76953125" xlink:href="#BitstreamVeraSans-Roman-72"/>
       <use x="829.8828125" xlink:href="#BitstreamVeraSans-Roman-73"/>
       <use x="881.982421875" xlink:href="#BitstreamVeraSans-Roman-20"/>
       <use x="913.76953125" xlink:href="#BitstreamVeraSans-Roman-70"/>
       <use x="977.24609375" xlink:href="#BitstreamVeraSans-Roman-75"/>
       <use x="1040.625" xlink:href="#BitstreamVeraSans-Roman-62"/>
       <use x="1104.1015625" xlink:href="#BitstreamVeraSans-Roman-6c"/>
       <use x="1131.88476562" xlink:href="#BitstreamVeraSans-Roman-69"/>
       <use x="1159.66796875" xlink:href="#BitstreamVeraSans-Roman-73"/>
       <use x="1211.76757812" xlink:href="#BitstreamVeraSans-Roman-68"/>
       <use x="1275.14648438" xlink:href="#BitstreamVeraSans-Roman-65"/>
       <use x="1336.66992188" xlink:href="#BitstreamVeraSans-Roman-64"/>
      </g>
      <!-- with it -->
      <g style="fill:#262626;" transform="translate(69.6375 287.42325)scale(0.16 -0.16)">
       <use xlink:href="#BitstreamVeraSans-Roman-77"/>
       <use x="81.787109375" xlink:href="#BitstreamVeraSans-Roman-69"/>
       <use x="109.5703125" xlink:href="#BitstreamVeraSans-Roman-74"/>
       <use x="148.779296875" xlink:href="#BitstreamVeraSans-Roman-68"/>
       <use x="212.158203125" xlink:href="#BitstreamVeraSans-Roman-20"/>
       <use x="243.9453125" xlink:href="#BitstreamVeraSans-Roman-69"/>
       <use x="271.728515625" xlink:href="#BitstreamVeraSans-Roman-74"/>
      </g>
     </g>
    </g>
   </g>
   <g id="patch_3">
    <path clip-path="url(#p93a0f6d2e2)" d="
M126 1494.67
L524.259 1494.67
L524.259 1397.02
L126 1397.02
z
" style="fill:#deebf7;stroke:#ffffff;stroke-linejoin:miter;stroke-width:0.3;"/>
   </g>
   <g id="patch_4">
    <path clip-path="url(#p93a0f6d2e2)" d="
M126 1299.38
L273.396 1299.38
L273.396 1201.72
L126 1201.72
z
" style="fill:#deebf7;stroke:#ffffff;stroke-linejoin:miter;stroke-width:0.3;"/>
   </g>
   <g id="patch_5">
    <path clip-path="url(#p93a0f6d2e2)" d="
M126 1104.08
L168.611 1104.08
L168.611 1006.43
L126 1006.43
z
" style="fill:#deebf7;stroke:#ffffff;stroke-linejoin:miter;stroke-width:0.3;"/>
   </g>
   <g id="patch_6">
    <path clip-path="url(#p93a0f6d2e2)" d="
M126 908.775
L169.4 908.775
L169.4 811.125
L126 811.125
z
" style="fill:#deebf7;stroke:#ffffff;stroke-linejoin:miter;stroke-width:0.3;"/>
   </g>
   <g id="patch_7">
    <path clip-path="url(#p93a0f6d2e2)" d="
M126 713.475
L201.115 713.475
L201.115 615.825
L126 615.825
z
" style="fill:#deebf7;stroke:#ffffff;stroke-linejoin:miter;stroke-width:0.3;"/>
   </g>
   <g id="patch_8">
    <path clip-path="url(#p93a0f6d2e2)" d="
M126 518.175
L153.9 518.175
L153.9 420.525
L126 420.525
z
" style="fill:#deebf7;stroke:#ffffff;stroke-linejoin:miter;stroke-width:0.3;"/>
   </g>
   <g id="patch_9">
    <path clip-path="url(#p93a0f6d2e2)" d="
M126 322.875
L126 322.875
L126 225.225
L126 225.225
z
" style="fill:#deebf7;stroke:#ffffff;stroke-linejoin:miter;stroke-width:0.3;"/>
   </g>
   <g id="patch_10">
    <path clip-path="url(#p93a0f6d2e2)" d="
M524.259 1494.67
L692.753 1494.67
L692.753 1397.02
L524.259 1397.02
z
" style="fill:#c6dbef;stroke:#ffffff;stroke-linejoin:miter;stroke-width:0.3;"/>
   </g>
   <g id="patch_11">
    <path clip-path="url(#p93a0f6d2e2)" d="
M273.396 1299.38
L465.011 1299.38
L465.011 1201.72
L273.396 1201.72
z
" style="fill:#c6dbef;stroke:#ffffff;stroke-linejoin:miter;stroke-width:0.3;"/>
   </g>
   <g id="patch_12">
    <path clip-path="url(#p93a0f6d2e2)" d="
M168.611 1104.08
L268.036 1104.08
L268.036 1006.43
L168.611 1006.43
z
" style="fill:#c6dbef;stroke:#ffffff;stroke-linejoin:miter;stroke-width:0.3;"/>
   </g>
   <g id="patch_13">
    <path clip-path="url(#p93a0f6d2e2)" d="
M169.4 908.775
L357.467 908.775
L357.467 811.125
L169.4 811.125
z
" style="fill:#c6dbef;stroke:#ffffff;stroke-linejoin:miter;stroke-width:0.3;"/>
   </g>
   <g id="patch_14">
    <path clip-path="url(#p93a0f6d2e2)" d="
M201.115 713.475
L216.138 713.475
L216.138 615.825
L201.115 615.825
z
" style="fill:#c6dbef;stroke:#ffffff;stroke-linejoin:miter;stroke-width:0.3;"/>
   </g>
   <g id="patch_15">
    <path clip-path="url(#p93a0f6d2e2)" d="
M153.9 518.175
L251.55 518.175
L251.55 420.525
L153.9 420.525
z
" style="fill:#c6dbef;stroke:#ffffff;stroke-linejoin:miter;stroke-width:0.3;"/>
   </g>
   <g id="patch_16">
    <path clip-path="url(#p93a0f6d2e2)" d="
M126 322.875
L126 322.875
L126 225.225
L126 225.225
z
" style="fill:#c6dbef;stroke:#ffffff;stroke-linejoin:miter;stroke-width:0.3;"/>
   </g>
   <g id="patch_17">
    <path clip-path="url(#p93a0f6d2e2)" d="
M692.753 1494.67
L769.341 1494.67
L769.341 1397.02
L692.753 1397.02
z
" style="fill:#9dcae1;stroke:#ffffff;stroke-linejoin:miter;stroke-width:0.3;"/>
   </g>
   <g id="patch_18">
    <path clip-path="url(#p93a0f6d2e2)" d="
M465.011 1299.38
L671.366 1299.38
L671.366 1201.72
L465.011 1201.72
z
" style="fill:#9dcae1;stroke:#ffffff;stroke-linejoin:miter;stroke-width:0.3;"/>
   </g>
   <g id="patch_19">
    <path clip-path="url(#p93a0f6d2e2)" d="
M268.036 1104.08
L395.869 1104.08
L395.869 1006.43
L268.036 1006.43
z
" style="fill:#9dcae1;stroke:#ffffff;stroke-linejoin:miter;stroke-width:0.3;"/>
   </g>
   <g id="patch_20">
    <path clip-path="url(#p93a0f6d2e2)" d="
M357.467 908.775
L545.533 908.775
L545.533 811.125
L357.467 811.125
z
" style="fill:#9dcae1;stroke:#ffffff;stroke-linejoin:miter;stroke-width:0.3;"/>
   </g>
   <g id="patch_21">
    <path clip-path="url(#p93a0f6d2e2)" d="
M216.138 713.475
L336.323 713.475
L336.323 615.825
L216.138 615.825
z
" style="fill:#9dcae1;stroke:#ffffff;stroke-linejoin:miter;stroke-width:0.3;"/>
   </g>
   <g id="patch_22">
    <path clip-path="url(#p93a0f6d2e2)" d="
M251.55 518.175
L321.3 518.175
L321.3 420.525
L251.55 420.525
z
" style="fill:#9dcae1;stroke:#ffffff;stroke-linejoin:miter;stroke-width:0.3;"/>
   </g>
   <g id="patch_23">
    <path clip-path="url(#p93a0f6d2e2)" d="
M126 322.875
L126 322.875
L126 225.225
L126 225.225
z
" style="fill:#9dcae1;stroke:#ffffff;stroke-linejoin:miter;stroke-width:0.3;"/>
   </g>
   <g id="patch_24">
    <path clip-path="url(#p93a0f6d2e2)" d="
M769.341 1494.67
L815.294 1494.67
L815.294 1397.02
L769.341 1397.02
z
" style="fill:#6aaed6;stroke:#ffffff;stroke-linejoin:miter;stroke-width:0.3;"/>
   </g>
   <g id="patch_25">
    <path clip-path="url(#p93a0f6d2e2)" d="
M671.366 1299.38
L789.283 1299.38
L789.283 1201.72
L671.366 1201.72
z
" style="fill:#6aaed6;stroke:#ffffff;stroke-linejoin:miter;stroke-width:0.3;"/>
   </g>
   <g id="patch_26">
    <path clip-path="url(#p93a0f6d2e2)" d="
M395.869 1104.08
L694.145 1104.08
L694.145 1006.43
L395.869 1006.43
z
" style="fill:#6aaed6;stroke:#ffffff;stroke-linejoin:miter;stroke-width:0.3;"/>
   </g>
   <g id="patch_27">
    <path clip-path="url(#p93a0f6d2e2)" d="
M545.533 908.775
L588.933 908.775
L588.933 811.125
L545.533 811.125
z
" style="fill:#6aaed6;stroke:#ffffff;stroke-linejoin:miter;stroke-width:0.3;"/>
   </g>
   <g id="patch_28">
    <path clip-path="url(#p93a0f6d2e2)" d="
M336.323 713.475
L426.462 713.475
L426.462 615.825
L336.323 615.825
z
" style="fill:#6aaed6;stroke:#ffffff;stroke-linejoin:miter;stroke-width:0.3;"/>
   </g>
   <g id="patch_29">
    <path clip-path="url(#p93a0f6d2e2)" d="
M321.3 518.175
L432.9 518.175
L432.9 420.525
L321.3 420.525
z
" style="fill:#6aaed6;stroke:#ffffff;stroke-linejoin:miter;stroke-width:0.3;"/>
   </g>
   <g id="patch_30">
    <path clip-path="url(#p93a0f6d2e2)" d="
M126 322.875
L198.333 322.875
L198.333 225.225
L126 225.225
z
" style="fill:#6aaed6;stroke:#ffffff;stroke-linejoin:miter;stroke-width:0.3;"/>
   </g>
   <g id="patch_31">
    <path clip-path="url(#p93a0f6d2e2)" d="
M815.294 1494.67
L891.882 1494.67
L891.882 1397.02
L815.294 1397.02
z
" style="fill:#4191c6;stroke:#ffffff;stroke-linejoin:miter;stroke-width:0.3;"/>
   </g>
   <g id="patch_32">
    <path clip-path="url(#p93a0f6d2e2)" d="
M789.283 1299.38
L877.721 1299.38
L877.721 1201.72
L789.283 1201.72
z
" style="fill:#4191c6;stroke:#ffffff;stroke-linejoin:miter;stroke-width:0.3;"/>
   </g>
   <g id="patch_33">
    <path clip-path="url(#p93a0f6d2e2)" d="
M694.145 1104.08
L878.793 1104.08
L878.793 1006.43
L694.145 1006.43
z
" style="fill:#4191c6;stroke:#ffffff;stroke-linejoin:miter;stroke-width:0.3;"/>
   </g>
   <g id="patch_34">
    <path clip-path="url(#p93a0f6d2e2)" d="
M588.933 908.775
L646.8 908.775
L646.8 811.125
L588.933 811.125
z
" style="fill:#4191c6;stroke:#ffffff;stroke-linejoin:miter;stroke-width:0.3;"/>
   </g>
   <g id="patch_35">
    <path clip-path="url(#p93a0f6d2e2)" d="
M426.462 713.475
L636.785 713.475
L636.785 615.825
L426.462 615.825
z
" style="fill:#4191c6;stroke:#ffffff;stroke-linejoin:miter;stroke-width:0.3;"/>
   </g>
   <g id="patch_36">
    <path clip-path="url(#p93a0f6d2e2)" d="
M432.9 518.175
L558.45 518.175
L558.45 420.525
L432.9 420.525
z
" style="fill:#4191c6;stroke:#ffffff;stroke-linejoin:miter;stroke-width:0.3;"/>
   </g>
   <g id="patch_37">
    <path clip-path="url(#p93a0f6d2e2)" d="
M198.333 322.875
L256.2 322.875
L256.2 225.225
L198.333 225.225
z
" style="fill:#4191c6;stroke:#ffffff;stroke-linejoin:miter;stroke-width:0.3;"/>
   </g>
   <g id="patch_38">
    <path clip-path="url(#p93a0f6d2e2)" d="
M891.882 1494.67
L907.2 1494.67
L907.2 1397.02
L891.882 1397.02
z
" style="fill:#2070b4;stroke:#ffffff;stroke-linejoin:miter;stroke-width:0.3;"/>
   </g>
   <g id="patch_39">
    <path clip-path="url(#p93a0f6d2e2)" d="
M877.721 1299.38
L907.2 1299.38
L907.2 1201.72
L877.721 1201.72
z
" style="fill:#2070b4;stroke:#ffffff;stroke-linejoin:miter;stroke-width:0.3;"/>
   </g>
   <g id="patch_40">
    <path clip-path="url(#p93a0f6d2e2)" d="
M878.793 1104.08
L907.2 1104.08
L907.2 1006.43
L878.793 1006.43
z
" style="fill:#2070b4;stroke:#ffffff;stroke-linejoin:miter;stroke-width:0.3;"/>
   </g>
   <g id="patch_41">
    <path clip-path="url(#p93a0f6d2e2)" d="
M646.8 908.775
L820.4 908.775
L820.4 811.125
L646.8 811.125
z
" style="fill:#2070b4;stroke:#ffffff;stroke-linejoin:miter;stroke-width:0.3;"/>
   </g>
   <g id="patch_42">
    <path clip-path="url(#p93a0f6d2e2)" d="
M636.785 713.475
L847.108 713.475
L847.108 615.825
L636.785 615.825
z
" style="fill:#2070b4;stroke:#ffffff;stroke-linejoin:miter;stroke-width:0.3;"/>
   </g>
   <g id="patch_43">
    <path clip-path="url(#p93a0f6d2e2)" d="
M558.45 518.175
L725.85 518.175
L725.85 420.525
L558.45 420.525
z
" style="fill:#2070b4;stroke:#ffffff;stroke-linejoin:miter;stroke-width:0.3;"/>
   </g>
   <g id="patch_44">
    <path clip-path="url(#p93a0f6d2e2)" d="
M256.2 322.875
L429.8 322.875
L429.8 225.225
L256.2 225.225
z
" style="fill:#2070b4;stroke:#ffffff;stroke-linejoin:miter;stroke-width:0.3;"/>
   </g>
   <g id="patch_45">
    <path clip-path="url(#p93a0f6d2e2)" d="
M126 1494.67
L126 1494.67
L126 1397.02
L126 1397.02
z
" style="fill:#08509b;stroke:#ffffff;stroke-linejoin:miter;stroke-width:0.3;"/>
   </g>
   <g id="patch_46">
    <path clip-path="url(#p93a0f6d2e2)" d="
M126 1299.38
L126 1299.38
L126 1201.72
L126 1201.72
z
" style="fill:#08509b;stroke:#ffffff;stroke-linejoin:miter;stroke-width:0.3;"/>
   </g>
   <g id="patch_47">
    <path clip-path="url(#p93a0f6d2e2)" d="
M126 1104.08
L126 1104.08
L126 1006.43
L126 1006.43
z
" style="fill:#08509b;stroke:#ffffff;stroke-linejoin:miter;stroke-width:0.3;"/>
   </g>
   <g id="patch_48">
    <path clip-path="url(#p93a0f6d2e2)" d="
M820.4 908.775
L907.2 908.775
L907.2 811.125
L820.4 811.125
z
" style="fill:#08509b;stroke:#ffffff;stroke-linejoin:miter;stroke-width:0.3;"/>
   </g>
   <g id="patch_49">
    <path clip-path="url(#p93a0f6d2e2)" d="
M847.108 713.475
L907.2 713.475
L907.2 615.825
L847.108 615.825
z
" style="fill:#08509b;stroke:#ffffff;stroke-linejoin:miter;stroke-width:0.3;"/>
   </g>
   <g id="patch_50">
    <path clip-path="url(#p93a0f6d2e2)" d="
M725.85 518.175
L907.2 518.175
L907.2 420.525
L725.85 420.525
z
" style="fill:#08509b;stroke:#ffffff;stroke-linejoin:miter;stroke-width:0.3;"/>
   </g>
   <g id="patch_51">
    <path clip-path="url(#p93a0f6d2e2)" d="
M429.8 322.875
L907.2 322.875
L907.2 225.225
L429.8 225.225
z
" style="fill:#08509b;stroke:#ffffff;stroke-linejoin:miter;stroke-width:0.3;"/>
   </g>
   <g id="LineCollection_1">
    <defs>
     <path d="
M769.199 -1489.95
L876.423 -1489.95" id="C0_0_33df7becfc"/>
     <path d="
M576.743 -1294.65
L675.007 -1294.65" id="C0_1_e45e1b13bf"/>
     <path d="
M548.968 -1099.35
L629.455 -1099.35" id="C0_2_0379940fca"/>
     <path d="
M444.267 -904.05
L579.289 -904.05" id="C0_3_47eed7af97"/>
     <path d="
M423.502 -708.75
L538.679 -708.75" id="C0_4_3a6a8e373f"/>
     <path d="
M308.754 -513.45
L429.654 -513.45" id="C0_5_f8a47f8738"/>
     <path d="
M235.067 -318.15
L297.756 -318.15" id="C0_6_ddc60ec0c1"/>
    </defs>
    <g clip-path="url(#p93a0f6d2e2)">
     <use style="fill:none;stroke:#c2c2c2;stroke-opacity:0.65;" x="0.0" xlink:href="#C0_0_33df7becfc" y="1764.0"/>
    </g>
    <g clip-path="url(#p93a0f6d2e2)">
     <use style="fill:none;stroke:#c2c2c2;stroke-opacity:0.65;" x="0.0" xlink:href="#C0_1_e45e1b13bf" y="1764.0"/>
    </g>
    <g clip-path="url(#p93a0f6d2e2)">
     <use style="fill:none;stroke:#c2c2c2;stroke-opacity:0.65;" x="0.0" xlink:href="#C0_2_0379940fca" y="1764.0"/>
    </g>
    <g clip-path="url(#p93a0f6d2e2)">
     <use style="fill:none;stroke:#c2c2c2;stroke-opacity:0.65;" x="0.0" xlink:href="#C0_3_47eed7af97" y="1764.0"/>
    </g>
    <g clip-path="url(#p93a0f6d2e2)">
     <use style="fill:none;stroke:#c2c2c2;stroke-opacity:0.65;" x="0.0" xlink:href="#C0_4_3a6a8e373f" y="1764.0"/>
    </g>
    <g clip-path="url(#p93a0f6d2e2)">
     <use style="fill:none;stroke:#c2c2c2;stroke-opacity:0.65;" x="0.0" xlink:href="#C0_5_f8a47f8738" y="1764.0"/>
    </g>
    <g clip-path="url(#p93a0f6d2e2)">
     <use style="fill:none;stroke:#c2c2c2;stroke-opacity:0.65;" x="0.0" xlink:href="#C0_6_ddc60ec0c1" y="1764.0"/>
    </g>
   </g>
   <g id="line2d_14">
    <path clip-path="url(#p93a0f6d2e2)" d="
M126 1543.5
L126 176.4" style="fill:none;stroke:#000000;stroke-dasharray:6.000000,6.000000;stroke-dashoffset:0.0;stroke-width:1.75;"/>
   </g>
   <g id="line2d_15">
    <path clip-path="url(#p93a0f6d2e2)" d="
M266.412 1445.85
L369.204 1250.55
L481.091 1055.25
L511.778 859.95
L589.212 664.65
L625.875 469.35
L822.811 274.05" style="fill:none;"/>
    <defs>
     <path d="
M0 10
C2.65203 10 5.1958 8.94634 7.07107 7.07107
C8.94634 5.1958 10 2.65203 10 0
C10 -2.65203 8.94634 -5.1958 7.07107 -7.07107
C5.1958 -8.94634 2.65203 -10 0 -10
C-2.65203 -10 -5.1958 -8.94634 -7.07107 -7.07107
C-8.94634 -5.1958 -10 -2.65203 -10 0
C-10 2.65203 -8.94634 5.1958 -7.07107 7.07107
C-5.1958 8.94634 -2.65203 10 0 10
z
" id="mc0f557a8d5"/>
    </defs>
    <g clip-path="url(#p93a0f6d2e2)">
     <use style="fill:#ffffff;" x="266.411764706" xlink:href="#mc0f557a8d5" y="1445.85"/>
     <use style="fill:#ffffff;" x="369.203773585" xlink:href="#mc0f557a8d5" y="1250.55"/>
     <use style="fill:#ffffff;" x="481.090909091" xlink:href="#mc0f557a8d5" y="1055.25"/>
     <use style="fill:#ffffff;" x="511.777777778" xlink:href="#mc0f557a8d5" y="859.95"/>
     <use style="fill:#ffffff;" x="589.211538462" xlink:href="#mc0f557a8d5" y="664.65"/>
     <use style="fill:#ffffff;" x="625.875" xlink:href="#mc0f557a8d5" y="469.35"/>
     <use style="fill:#ffffff;" x="822.811111111" xlink:href="#mc0f557a8d5" y="274.05"/>
    </g>
   </g>
   <g id="line2d_16">
    <defs>
     <path d="
M0 8
L0 -8" id="mfe15bc259f" style="stroke:#c2c2c2;"/>
    </defs>
    <g clip-path="url(#p93a0f6d2e2)">
     <use style="fill:#c2c2c2;opacity:0.65;stroke:#c2c2c2;" x="769.199346405" xlink:href="#mfe15bc259f" y="274.05"/>
     <use style="fill:#c2c2c2;opacity:0.65;stroke:#c2c2c2;" x="576.742924528" xlink:href="#mfe15bc259f" y="469.35"/>
     <use style="fill:#c2c2c2;opacity:0.65;stroke:#c2c2c2;" x="548.967902098" xlink:href="#mfe15bc259f" y="664.65"/>
     <use style="fill:#c2c2c2;opacity:0.65;stroke:#c2c2c2;" x="444.266666667" xlink:href="#mfe15bc259f" y="859.95"/>
     <use style="fill:#c2c2c2;opacity:0.65;stroke:#c2c2c2;" x="423.502447552" xlink:href="#mfe15bc259f" y="1055.25"/>
     <use style="fill:#c2c2c2;opacity:0.65;stroke:#c2c2c2;" x="308.753773585" xlink:href="#mfe15bc259f" y="1250.55"/>
     <use style="fill:#c2c2c2;opacity:0.65;stroke:#c2c2c2;" x="235.067320261" xlink:href="#mfe15bc259f" y="1445.85"/>
    </g>
   </g>
   <g id="line2d_17">
    <g clip-path="url(#p93a0f6d2e2)">
     <use style="fill:#c2c2c2;opacity:0.65;stroke:#c2c2c2;" x="876.422875817" xlink:href="#mfe15bc259f" y="274.05"/>
     <use style="fill:#c2c2c2;opacity:0.65;stroke:#c2c2c2;" x="675.007075472" xlink:href="#mfe15bc259f" y="469.35"/>
     <use style="fill:#c2c2c2;opacity:0.65;stroke:#c2c2c2;" x="629.455174825" xlink:href="#mfe15bc259f" y="664.65"/>
     <use style="fill:#c2c2c2;opacity:0.65;stroke:#c2c2c2;" x="579.288888889" xlink:href="#mfe15bc259f" y="859.95"/>
     <use style="fill:#c2c2c2;opacity:0.65;stroke:#c2c2c2;" x="538.679370629" xlink:href="#mfe15bc259f" y="1055.25"/>
     <use style="fill:#c2c2c2;opacity:0.65;stroke:#c2c2c2;" x="429.653773585" xlink:href="#mfe15bc259f" y="1250.55"/>
     <use style="fill:#c2c2c2;opacity:0.65;stroke:#c2c2c2;" x="297.75620915" xlink:href="#mfe15bc259f" y="1445.85"/>
    </g>
   </g>
   <g id="patch_52">
    <path d="
M126 1543.5
L907.2 1543.5" style="fill:none;stroke:#262626;stroke-linecap:square;stroke-linejoin:miter;stroke-width:1.25;"/>
   </g>
   <g id="patch_53">
    <path d="
M126 1543.5
L126 176.4" style="fill:none;stroke:#262626;stroke-linecap:square;stroke-linejoin:miter;stroke-width:1.25;"/>
   </g>
   <g id="legend_1">
    <g id="patch_54">
     <path d="
M132.4 28.1713
L164.4 28.1713
L164.4 16.9713
L132.4 16.9713
z
" style="fill:#deebf7;stroke:#ffffff;stroke-linejoin:miter;stroke-width:0.3;"/>
    </g>
    <g id="text_14">
     <!-- 7 (Least interesting) -->
     <defs>
      <path d="
M8.20312 72.9062
L55.0781 72.9062
L55.0781 68.7031
L28.6094 0
L18.3125 0
L43.2188 64.5938
L8.20312 64.5938
z
" id="BitstreamVeraSans-Roman-37"/>
     </defs>
     <g style="fill:#262626;" transform="translate(177.2 28.1713)scale(0.16 -0.16)">
      <use xlink:href="#BitstreamVeraSans-Roman-37"/>
      <use x="63.623046875" xlink:href="#BitstreamVeraSans-Roman-20"/>
      <use x="95.41015625" xlink:href="#BitstreamVeraSans-Roman-28"/>
      <use x="134.423828125" xlink:href="#BitstreamVeraSans-Roman-4c"/>
      <use x="188.38671875" xlink:href="#BitstreamVeraSans-Roman-65"/>
      <use x="249.91015625" xlink:href="#BitstreamVeraSans-Roman-61"/>
      <use x="311.189453125" xlink:href="#BitstreamVeraSans-Roman-73"/>
      <use x="363.2890625" xlink:href="#BitstreamVeraSans-Roman-74"/>
      <use x="402.498046875" xlink:href="#BitstreamVeraSans-Roman-20"/>
      <use x="434.28515625" xlink:href="#BitstreamVeraSans-Roman-69"/>
      <use x="462.068359375" xlink:href="#BitstreamVeraSans-Roman-6e"/>
      <use x="525.447265625" xlink:href="#BitstreamVeraSans-Roman-74"/>
      <use x="564.65625" xlink:href="#BitstreamVeraSans-Roman-65"/>
      <use x="626.1796875" xlink:href="#BitstreamVeraSans-Roman-72"/>
      <use x="665.04296875" xlink:href="#BitstreamVeraSans-Roman-65"/>
      <use x="726.56640625" xlink:href="#BitstreamVeraSans-Roman-73"/>
      <use x="778.666015625" xlink:href="#BitstreamVeraSans-Roman-74"/>
      <use x="817.875" xlink:href="#BitstreamVeraSans-Roman-69"/>
      <use x="845.658203125" xlink:href="#BitstreamVeraSans-Roman-6e"/>
      <use x="909.037109375" xlink:href="#BitstreamVeraSans-Roman-67"/>
      <use x="972.513671875" xlink:href="#BitstreamVeraSans-Roman-29"/>
     </g>
    </g>
    <g id="patch_55">
     <path d="
M354.229 28.1713
L386.229 28.1713
L386.229 16.9713
L354.229 16.9713
z
" style="fill:#c6dbef;stroke:#ffffff;stroke-linejoin:miter;stroke-width:0.3;"/>
    </g>
    <g id="text_15">
     <!-- 6 -->
     <g style="fill:#262626;" transform="translate(399.029166667 28.1713)scale(0.16 -0.16)">
      <use xlink:href="#BitstreamVeraSans-Roman-36"/>
     </g>
    </g>
    <g id="patch_56">
     <path d="
M423.646 28.1713
L455.646 28.1713
L455.646 16.9713
L423.646 16.9713
z
" style="fill:#9dcae1;stroke:#ffffff;stroke-linejoin:miter;stroke-width:0.3;"/>
    </g>
    <g id="text_16">
     <!-- 5 -->
     <defs>
      <path d="
M10.7969 72.9062
L49.5156 72.9062
L49.5156 64.5938
L19.8281 64.5938
L19.8281 46.7344
Q21.9688 47.4688 24.1094 47.8281
Q26.2656 48.1875 28.4219 48.1875
Q40.625 48.1875 47.75 41.5
Q54.8906 34.8125 54.8906 23.3906
Q54.8906 11.625 47.5625 5.09375
Q40.2344 -1.42188 26.9062 -1.42188
Q22.3125 -1.42188 17.5469 -0.640625
Q12.7969 0.140625 7.71875 1.70312
L7.71875 11.625
Q12.1094 9.23438 16.7969 8.0625
Q21.4844 6.89062 26.7031 6.89062
Q35.1562 6.89062 40.0781 11.3281
Q45.0156 15.7656 45.0156 23.3906
Q45.0156 31 40.0781 35.4375
Q35.1562 39.8906 26.7031 39.8906
Q22.75 39.8906 18.8125 39.0156
Q14.8906 38.1406 10.7969 36.2812
z
" id="BitstreamVeraSans-Roman-35"/>
     </defs>
     <g style="fill:#262626;" transform="translate(468.445833333 28.1713)scale(0.16 -0.16)">
      <use xlink:href="#BitstreamVeraSans-Roman-35"/>
     </g>
    </g>
    <g id="patch_57">
     <path d="
M492.555 28.1713
L524.555 28.1713
L524.555 16.9713
L492.555 16.9713
z
" style="fill:#6aaed6;stroke:#ffffff;stroke-linejoin:miter;stroke-width:0.3;"/>
    </g>
    <g id="text_17">
     <!-- 4 -->
     <g style="fill:#262626;" transform="translate(537.355 28.1713)scale(0.16 -0.16)">
      <use xlink:href="#BitstreamVeraSans-Roman-34"/>
     </g>
    </g>
    <g id="patch_58">
     <path d="
M562.417 28.1713
L594.417 28.1713
L594.417 16.9713
L562.417 16.9713
z
" style="fill:#4191c6;stroke:#ffffff;stroke-linejoin:miter;stroke-width:0.3;"/>
    </g>
    <g id="text_18">
     <!-- 3 -->
     <defs>
      <path d="
M40.5781 39.3125
Q47.6562 37.7969 51.625 33
Q55.6094 28.2188 55.6094 21.1875
Q55.6094 10.4062 48.1875 4.48438
Q40.7656 -1.42188 27.0938 -1.42188
Q22.5156 -1.42188 17.6562 -0.515625
Q12.7969 0.390625 7.625 2.20312
L7.625 11.7188
Q11.7188 9.32812 16.5938 8.10938
Q21.4844 6.89062 26.8125 6.89062
Q36.0781 6.89062 40.9375 10.5469
Q45.7969 14.2031 45.7969 21.1875
Q45.7969 27.6406 41.2812 31.2656
Q36.7656 34.9062 28.7188 34.9062
L20.2188 34.9062
L20.2188 43.0156
L29.1094 43.0156
Q36.375 43.0156 40.2344 45.9219
Q44.0938 48.8281 44.0938 54.2969
Q44.0938 59.9062 40.1094 62.9062
Q36.1406 65.9219 28.7188 65.9219
Q24.6562 65.9219 20.0156 65.0312
Q15.375 64.1562 9.8125 62.3125
L9.8125 71.0938
Q15.4375 72.6562 20.3438 73.4375
Q25.25 74.2188 29.5938 74.2188
Q40.8281 74.2188 47.3594 69.1094
Q53.9062 64.0156 53.9062 55.3281
Q53.9062 49.2656 50.4375 45.0938
Q46.9688 40.9219 40.5781 39.3125" id="BitstreamVeraSans-Roman-33"/>
     </defs>
     <g style="fill:#262626;" transform="translate(607.216666667 28.1713)scale(0.16 -0.16)">
      <use xlink:href="#BitstreamVeraSans-Roman-33"/>
     </g>
    </g>
    <g id="patch_59">
     <path d="
M631.456 28.1713
L663.456 28.1713
L663.456 16.9713
L631.456 16.9713
z
" style="fill:#2070b4;stroke:#ffffff;stroke-linejoin:miter;stroke-width:0.3;"/>
    </g>
    <g id="text_19">
     <!-- 2 -->
     <g style="fill:#262626;" transform="translate(676.255833333 28.1713)scale(0.16 -0.16)">
      <use xlink:href="#BitstreamVeraSans-Roman-32"/>
     </g>
    </g>
    <g id="patch_60">
     <path d="
M700.223 28.1713
L732.223 28.1713
L732.223 16.9713
L700.223 16.9713
z
" style="fill:#08509b;stroke:#ffffff;stroke-linejoin:miter;stroke-width:0.3;"/>
    </g>
    <g id="text_20">
     <!-- 1 (Most interesting) -->
     <defs>
      <path d="
M9.8125 72.9062
L24.5156 72.9062
L43.1094 23.2969
L61.8125 72.9062
L76.5156 72.9062
L76.5156 0
L66.8906 0
L66.8906 64.0156
L48.0938 14.0156
L38.1875 14.0156
L19.3906 64.0156
L19.3906 0
L9.8125 0
z
" id="BitstreamVeraSans-Roman-4d"/>
     </defs>
     <g style="fill:#262626;" transform="translate(745.0225 28.1713)scale(0.16 -0.16)">
      <use xlink:href="#BitstreamVeraSans-Roman-31"/>
      <use x="63.623046875" xlink:href="#BitstreamVeraSans-Roman-20"/>
      <use x="95.41015625" xlink:href="#BitstreamVeraSans-Roman-28"/>
      <use x="134.423828125" xlink:href="#BitstreamVeraSans-Roman-4d"/>
      <use x="220.703125" xlink:href="#BitstreamVeraSans-Roman-6f"/>
      <use x="281.884765625" xlink:href="#BitstreamVeraSans-Roman-73"/>
      <use x="333.984375" xlink:href="#BitstreamVeraSans-Roman-74"/>
      <use x="373.193359375" xlink:href="#BitstreamVeraSans-Roman-20"/>
      <use x="404.98046875" xlink:href="#BitstreamVeraSans-Roman-69"/>
      <use x="432.763671875" xlink:href="#BitstreamVeraSans-Roman-6e"/>
      <use x="496.142578125" xlink:href="#BitstreamVeraSans-Roman-74"/>
      <use x="535.3515625" xlink:href="#BitstreamVeraSans-Roman-65"/>
      <use x="596.875" xlink:href="#BitstreamVeraSans-Roman-72"/>
      <use x="635.73828125" xlink:href="#BitstreamVeraSans-Roman-65"/>
      <use x="697.26171875" xlink:href="#BitstreamVeraSans-Roman-73"/>
      <use x="749.361328125" xlink:href="#BitstreamVeraSans-Roman-74"/>
      <use x="788.5703125" xlink:href="#BitstreamVeraSans-Roman-69"/>
      <use x="816.353515625" xlink:href="#BitstreamVeraSans-Roman-6e"/>
      <use x="879.732421875" xlink:href="#BitstreamVeraSans-Roman-67"/>
      <use x="943.208984375" xlink:href="#BitstreamVeraSans-Roman-29"/>
     </g>
    </g>
   </g>
  </g>
 </g>
 <defs>
  <clipPath id="p93a0f6d2e2">
   <rect height="1367.1" width="781.2" x="126.0" y="176.4"/>
  </clipPath>
 </defs>
</svg>
